<mxfile host="app.diagrams.net" modified="2020-12-17T04:59:31.604Z" agent="5.0 (Windows NT 10.0; Win64; x64) AppleWebKit/537.36 (KHTML, like Gecko) Chrome/86.0.4240.111 Safari/537.36" etag="4QQqkGoblWkCmgzdoZh6" version="14.0.4" type="github">
  <diagram id="H2Gwt1Vl9tpk588tiA88" name="第 1 页">
    <mxGraphModel dx="1420" dy="778" grid="1" gridSize="10" guides="1" tooltips="1" connect="1" arrows="1" fold="1" page="1" pageScale="1" pageWidth="827" pageHeight="1169" math="0" shadow="0">
      <root>
        <mxCell id="0" />
        <mxCell id="1" parent="0" />
      </root>
    </mxGraphModel>
  </diagram>
</mxfile>
